<?xml version="1.0" encoding="UTF-8"?>
<svg id="Layer_1" data-name="Layer 1" xmlns="http://www.w3.org/2000/svg" xmlns:xlink="http://www.w3.org/1999/xlink" viewBox="0 0 864 155.7846">
  <g id="type">
    <path id="type_CompoundPathItem_" data-name="type &amp;lt;CompoundPathItem&amp;gt;" d="M219.92,32.4517h24.5368c13.7695,0,20.6516,5.4479,20.6516,16.3329,0,5.5656-1.7767,9.7077-5.3248,12.4156-3.5534,2.7132-8.9478,4.0672-16.1938,4.0672h-15.0378v18.5645h-8.632v-51.3802ZM256.1874,48.6454c0-3.12-.9847-5.389-2.9541-6.8018-1.964-1.4128-5.084-2.1246-9.3545-2.1246h-15.3268v18.2809h15.1823c4.2705,0,7.4119-.7599,9.4294-2.2691,2.0122-1.5091,3.0236-3.8745,3.0236-7.0854Z"/>
    <path id="type_CompoundPathItem_-2" data-name="type &amp;lt;CompoundPathItem&amp;gt;" d="M296.8431,32.4517h24.4619c13.625,0,20.4376,5.2285,20.4376,15.6854,0,6.9088-3.3073,11.5433-9.9271,13.8926l12.8063,21.8022h-9.788l-11.5861-20.079c-.3318.0482-.7278.0749-1.1827.0749h-16.8039v20.0041h-8.418v-51.3802ZM332.9661,48.0675c0-2.9755-.9633-5.1214-2.8791-6.4379-1.9212-1.3218-5.0358-1.9801-9.3545-1.9801h-15.4713v16.9805h15.3268c8.2521,0,12.3781-2.8524,12.3781-8.5625Z"/>
    <path id="type_CompoundPathItem_-3" data-name="type &amp;lt;CompoundPathItem&amp;gt;" d="M371.0316,58.1444c0-5.5174,1.1987-10.291,3.5962-14.3207,2.3975-4.0297,5.7797-7.1497,10.1465-9.3545,4.3669-2.2102,9.499-3.3126,15.4018-3.3126,5.9456,0,11.0938,1.1024,15.4339,3.3126,4.3401,2.2048,7.7009,5.3248,10.077,9.3545,2.3707,4.0297,3.5588,8.8033,3.5588,14.3207,0,5.4639-1.1987,10.2268-3.5962,14.2833-2.3975,4.0511-5.769,7.1818-10.1091,9.3866-4.3455,2.2102-9.4883,3.3126-15.4392,3.3126-5.8974,0-11.0295-1.1024-15.3964-3.3126-4.3669-2.2048-7.7383-5.3248-10.1091-9.3545-2.3761-4.0297-3.5641-8.7979-3.5641-14.3154ZM380.0971,58.1444c0,6.1382,1.766,10.9225,5.2927,14.3528,3.5267,3.4303,8.4554,5.1482,14.7863,5.1482,6.2827,0,11.1901-1.7285,14.7168-5.1856,3.5267-3.4517,5.2873-8.2253,5.2873-14.3154,0-6.1436-1.75-10.9279-5.2552-14.3582-3.4999-3.4303-8.418-5.1482-14.7489-5.1482-6.2881,0-11.2008,1.7178-14.7542,5.1482-3.5481,3.4303-5.3248,8.2146-5.3248,14.3582Z"/>
    <path id="type_CompoundPathItem_-4" data-name="type &amp;lt;CompoundPathItem&amp;gt;" d="M538.3798,58.1444c0-5.373,1.1399-10.077,3.4196-14.1067,2.2744-4.0297,5.5014-7.1818,9.6756-9.4615,4.1742-2.2798,9.1137-3.4196,14.8238-3.4196,13.7214,0,22.1661,5.7315,25.3342,17.1999l-8.5678,1.1506c-1.3432-3.8371-3.334-6.6092-5.9723-8.311s-6.2346-2.558-10.7941-2.558c-3.8852,0-7.2299.792-10.0341,2.3761-2.8096,1.5841-4.9823,3.8264-6.5128,6.7269-1.5359,2.9059-2.3065,6.3737-2.3065,10.4034,0,6.0901,1.6911,10.8636,5.0733,14.3154,3.3822,3.4571,8.0487,5.1856,13.9996,5.1856,4.9876,0,8.8515-.9151,11.5861-2.7346,2.7346-1.8249,4.5542-4.6291,5.4693-8.4233h8.921c-.9098,5.9991-3.623,10.6068-8.1344,13.8177-4.506,3.2163-10.4783,4.8217-17.917,4.8217-5.8064,0-10.8048-1.1131-15.0004-3.3447-4.201-2.2316-7.4279-5.3622-9.6809-9.392-2.253-4.0297-3.3822-8.7819-3.3822-14.2458Z"/>
    <path id="type_CompoundPathItem_-5" data-name="type &amp;lt;CompoundPathItem&amp;gt;" d="M638.839,39.9385h-20.871v-7.4868h50.4437v7.4868h-20.8657v43.8934h-8.707v-43.8934Z"/>
    <path id="type_CompoundPathItem_-6" data-name="type &amp;lt;CompoundPathItem&amp;gt;" d="M697.6311,32.4517h8.707v51.3802h-8.707v-51.3802Z"/>
    <path id="type_CompoundPathItem_-7" data-name="type &amp;lt;CompoundPathItem&amp;gt;" d="M763.6853,75.1249l18.0668-42.6732h9.6381l-23.0277,51.3802h-9.6381l-23.0277-51.3802h9.9271l18.0615,42.6732Z"/>
    <path id="type_CompoundPathItem_-8" data-name="type &amp;lt;CompoundPathItem&amp;gt;" d="M820.7542,32.4517h41.6618v7.1978h-33.0297v14.1762h31.3761v7.1925h-31.3761v15.6158h34.6138l-1.2951,7.1978h-41.9508v-51.3802Z"/>
    <path id="type_CompoundPathItem_-9" data-name="type &amp;lt;CompoundPathItem&amp;gt;" d="M483.6576,41.1586l-18.0668,42.6732h-9.6381l23.0277-51.3802h9.6381l23.0277,51.3802h-9.9271l-18.0615-42.6732Z"/>
    <path id="type_CompoundPathItem_-10" data-name="type &amp;lt;CompoundPathItem&amp;gt;" d="M317.3621,107.0254h-7.9774v-1.5431h17.7073v1.5431h-7.9774v17.1319h-1.7526v-17.1319Z"/>
    <path id="type_CompoundPathItem_-11" data-name="type &amp;lt;CompoundPathItem&amp;gt;" d="M358.9235,105.4822h14.4902v1.5431h-12.7378v6.722h12.1102v1.5431h-12.1102v7.3235h13.1303l-.34,1.5431h-14.5426v-18.675Z"/>
    <path id="type_CompoundPathItem_-12" data-name="type &amp;lt;CompoundPathItem&amp;gt;" d="M405.5061,114.8459c0-1.9878.4095-3.7183,1.2293-5.192.8194-1.4733,1.9658-2.6155,3.4396-3.4265,1.4733-.8107,3.204-1.216,5.1918-1.216,4.7251,0,7.6461,2.0227,8.7622,6.0682l-1.7002.2874c-.5407-1.6563-1.3776-2.8679-2.511-3.6354-1.1336-.7674-2.6506-1.1509-4.551-1.1509-1.6392,0-3.0647.3359-4.2765,1.0068-1.212.6717-2.1446,1.6261-2.7985,2.864-.6541,1.2386-.981,2.7032-.981,4.3944,0,1.7091.3311,3.1776.9939,4.4071.6626,1.2291,1.5997,2.1708,2.8118,2.8247,1.2119.6539,2.6548.981,4.3287.981,4.1151,0,6.5301-1.6563,7.2453-4.9697h1.7786c-.3492,2.0755-1.3079,3.6838-2.8773,4.826s-3.6185,1.7131-6.1466,1.7131c-2.04,0-3.8015-.397-5.2833-1.1902-1.4824-.7932-2.6288-1.9223-3.4394-3.3872-.8109-1.4645-1.2164-3.1994-1.2164-5.2047Z"/>
    <path id="type_CompoundPathItem_-13" data-name="type &amp;lt;CompoundPathItem&amp;gt;" d="M472.4908,115.2905h-13.4179v8.8667h-1.7524v-18.675h1.7524v8.1866h13.4179v-8.1866h1.7262v18.675h-1.7262v-8.8667Z"/>
    <path id="type_CompoundPathItem_-14" data-name="type &amp;lt;CompoundPathItem&amp;gt;" d="M508.1928,105.4822h1.7262l13.5225,16.2426v-16.2426h1.7002v18.675h-1.7002l-13.5225-16.2426v16.2426h-1.7262v-18.675Z"/>
    <path id="type_CompoundPathItem_-15" data-name="type &amp;lt;CompoundPathItem&amp;gt;" d="M558.1497,114.8197c0-2.0053.4186-3.7402,1.2555-5.2051.8371-1.4645,2.0182-2.598,3.544-3.4003,1.5257-.8015,3.3174-1.2029,5.375-1.2029,2.0749,0,3.8751.4014,5.4012,1.2029,1.5257.8023,2.7072,1.9358,3.544,3.4003.8371,1.4649,1.2555,3.1998,1.2555,5.2051s-.4184,3.7402-1.2555,5.2051c-.8369,1.4645-2.0184,2.5984-3.544,3.3999-1.5261.8019-3.3263,1.2033-5.4012,1.2033-2.0577,0-3.8493-.4014-5.375-1.2033-1.5259-.8015-2.707-1.9354-3.544-3.3999-.8369-1.4649-1.2555-3.1998-1.2555-5.2051ZM559.9544,114.8197c0,1.7091.3357,3.1824,1.007,4.4202.6711,1.2383,1.6349,2.1839,2.8902,2.8378,1.2555.6539,2.7465.981,4.4726.981s3.2173-.3271,4.4726-.981c1.2555-.6539,2.2188-1.5995,2.8902-2.8378.6711-1.2379,1.007-2.7111,1.007-4.4202,0-1.7262-.3359-3.2042-1.007-4.4333-.6713-1.2295-1.6305-2.1712-2.8771-2.8251-1.2468-.6539-2.7423-.9806-4.4857-.9806-1.7262,0-3.2129.3267-4.4595.9806-1.2468.6539-2.2101,1.5956-2.8902,2.8251-.6801,1.2291-1.0201,2.7072-1.0201,4.4333Z"/>
    <path id="type_CompoundPathItem_-16" data-name="type &amp;lt;CompoundPathItem&amp;gt;" d="M611.5074,105.4822h1.7524v17.1319h12.7116l-.34,1.5431h-14.124v-18.675Z"/>
    <path id="type_CompoundPathItem_-17" data-name="type &amp;lt;CompoundPathItem&amp;gt;" d="M656.3117,114.8197c0-2.0053.4186-3.7402,1.2555-5.2051.8371-1.4645,2.0182-2.598,3.544-3.4003,1.5257-.8015,3.3174-1.2029,5.375-1.2029,2.0749,0,3.8751.4014,5.4012,1.2029,1.5257.8023,2.7072,1.9358,3.544,3.4003.8371,1.4649,1.2555,3.1998,1.2555,5.2051s-.4184,3.7402-1.2555,5.2051c-.8369,1.4645-2.0184,2.5984-3.544,3.3999-1.5261.8019-3.3263,1.2033-5.4012,1.2033-2.0577,0-3.8493-.4014-5.375-1.2033-1.5259-.8015-2.707-1.9354-3.544-3.3999-.8369-1.4649-1.2555-3.1998-1.2555-5.2051ZM658.1165,114.8197c0,1.7091.3357,3.1824,1.007,4.4202.6711,1.2383,1.6349,2.1839,2.8902,2.8378,1.2555.6539,2.7465.981,4.4726.981s3.2173-.3271,4.4726-.981c1.2555-.6539,2.2188-1.5995,2.8902-2.8378.6711-1.2379,1.007-2.7111,1.007-4.4202,0-1.7262-.3359-3.2042-1.007-4.4333-.6713-1.2295-1.6305-2.1712-2.8771-2.8251-1.2468-.6539-2.7423-.9806-4.4857-.9806-1.7262,0-3.2129.3267-4.4595.9806-1.2468.6539-2.2101,1.5956-2.8902,2.8251-.6801,1.2291-1.0201,2.7072-1.0201,4.4333Z"/>
    <path id="type_CompoundPathItem_-18" data-name="type &amp;lt;CompoundPathItem&amp;gt;" d="M708.7016,114.8979c0-2.0223.4095-3.7703,1.2293-5.244.8194-1.4733,1.9834-2.6155,3.4918-3.4265,1.508-.8107,3.2735-1.216,5.2966-1.216,2.1095,0,3.862.449,5.2573,1.347,1.3947.898,2.3711,2.1839,2.9293,3.8577l-1.7.3402c-.4885-1.3248-1.2863-2.3189-2.3933-2.9819-1.1074-.6622-2.4892-.9937-4.1457-.9937-1.7091,0-3.1738.3359-4.394,1.0068-1.2208.6717-2.1539,1.6261-2.7987,2.864-.6453,1.2386-.9679,2.7119-.9679,4.4206,0,2.6504.7672,4.6775,2.3018,6.0809,1.5342,1.4038,3.6181,2.1057,6.2512,2.1057,1.3248,0,2.5541-.1524,3.688-.4577,1.1332-.3049,2.1271-.7194,2.9817-1.2422v-4.9435h-6.5128v-1.5173h8.1606v7.1667c-1.0638.8198-2.3324,1.4518-3.8057,1.8965-1.4737.4446-2.9863.667-4.5379.667-2.0753,0-3.8886-.3752-5.4403-1.1247-1.5523-.7495-2.7554-1.848-3.6095-3.2955-.8545-1.4471-1.2817-3.2173-1.2817-5.3099Z"/>
    <path id="type_CompoundPathItem_-19" data-name="type &amp;lt;CompoundPathItem&amp;gt;" d="M764.8316,116.206l-7.9774-10.7238h2.1446l6.7482,9.2065,6.7481-9.2065h2.0402l-7.9514,10.6976v7.9774h-1.7524v-7.9512Z"/>
  </g>
  <g id="logoMark">
    <a xlink:href="26.9407843137255">
      <polygon id="logoMark_PathItem_" data-name="logoMark &amp;lt;PathItem&amp;gt;" points="0 116.8434 14.7205 125.3437 14.7205 108.3432 0 99.843 0 116.8434" style="fill: #f9b62c;"/>
    </a>
    <a xlink:href="26.9407843137255">
      <polygon id="logoMark_PathItem_-2" data-name="logoMark &amp;lt;PathItem&amp;gt;" points="67.462 0 0 38.9412 0 82.8524 14.7205 91.3427 14.7205 47.4414 67.462 16.9905 120.2036 47.4414 120.2036 108.3432 67.462 138.7941 55.4517 131.8539 29.4409 116.8434 29.4409 133.834 67.462 155.7846 134.924 116.8434 134.924 38.9412 67.462 0" style="fill: #f9b62c;"/>
    </a>
  </g>
</svg>